<svg xmlns="http://www.w3.org/2000/svg" width="23.015" height="23" viewBox="0 0 23.015 23">
  <g id="navigation_7802682" transform="translate(-2.523 -2.523)">
    <path id="패스_17" data-name="패스 17" d="M10.521,25.523h-.233A2.241,2.241,0,0,1,8.311,23.9L2.612,5.52a2.423,2.423,0,0,1,.581-2.326A2.423,2.423,0,0,1,5.52,2.612L23.9,8.311a2.241,2.241,0,0,1,1.628,1.977,2.454,2.454,0,0,1-1.279,2.326l-7.792,3.954L12.5,24.36a2.251,2.251,0,0,1-1.977,1.163Zm-5.7-20.7,5.7,18.375,3.954-7.792a2.282,2.282,0,0,1,1.047-1.047L23.314,10.4Z" transform="translate(0)" fill="#f2f2f2"/>
  </g>
</svg>
